<svg viewBox="0 0 360 420" xmlns="http://www.w3.org/2000/svg" font-family="-apple-system, BlinkMacSystemFont, 'Segoe UI', 'PingFang SC', 'Microsoft YaHei', sans-serif">
<defs>
  <linearGradient id="hg" x1="0" y1="0" x2="1" y2="1">
    <stop offset="0" stop-color="#3DBB8A"/>
    <stop offset="1" stop-color="#5FD39E"/>
  </linearGradient>
  <linearGradient id="bg" x1="0" y1="0" x2="1" y2="1">
    <stop offset="0" stop-color="#0E2A22"/>
    <stop offset="1" stop-color="#16352A"/>
  </linearGradient>
</defs>
<rect x="0" y="0" width="360" height="420" rx="28" fill="url(#bg)"/>
<circle cx="180" cy="150" r="78" fill="#13241D" stroke="#2C4A3D" stroke-width="2"/>
<clipPath id="clip"><circle cx="180" cy="150" r="78"/></clipPath>
<g clip-path="url(#clip)">
  <rect x="180" y="72" width="78" height="156" fill="#1B3A2E"/>
  <path d="M170,96 C134,96 122,134 128,166 C132,196 148,212 170,216 L170,96 Z" fill="#5B7A6C"/>
  <path d="M190,92 C230,94 246,132 240,172 C236,200 220,216 190,218 C210,192 210,152 204,128 C200,110 195,100 190,92 Z" fill="url(#hg)"/>
  <line x1="180" y1="72" x2="180" y2="228" stroke="#0E2A22" stroke-width="3.5"/>
</g>
<g transform="translate(232,98)" fill="#7FE3B5"><path d="M0,-13 L3.5,-3.5 L13,0 L3.5,3.5 L0,13 L-3.5,3.5 L-13,0 L-3.5,-3.5 Z"/></g>
<text x="180" y="305" font-size="46" font-weight="800" fill="#FFFFFF" text-anchor="middle" letter-spacing="3">焕发</text>
<text x="180" y="332" font-size="11" fill="#A8BDB4" text-anchor="middle" letter-spacing="4">看见焕新后的自己</text>
<text x="180" y="356" font-size="10" fill="#5B7A6C" text-anchor="middle" letter-spacing="3">HUANFA · AI HAIR</text>
</svg>
