<svg viewBox="0 0 240 240" xmlns="http://www.w3.org/2000/svg">
<defs>
  <linearGradient id="hg" x1="0" y1="0" x2="1" y2="1"><stop offset="0" stop-color="#3DBB8A"/><stop offset="1" stop-color="#5FD39E"/></linearGradient>
  <linearGradient id="bg" x1="0" y1="0" x2="1" y2="1"><stop offset="0" stop-color="#0E2A22"/><stop offset="1" stop-color="#16352A"/></linearGradient>
</defs>
<rect x="0" y="0" width="240" height="240" rx="52" fill="url(#bg)"/>
<circle cx="120" cy="115" r="72" fill="#13241D" stroke="#2C4A3D" stroke-width="2"/>
<clipPath id="clip"><circle cx="120" cy="115" r="72"/></clipPath>
<g clip-path="url(#clip)">
  <rect x="120" y="43" width="72" height="144" fill="#1B3A2E"/>
  <path d="M111,66 C77,66 66,101 72,131 C76,159 91,174 111,178 L111,66 Z" fill="#5B7A6C"/>
  <path d="M129,62 C166,64 181,99 175,137 C171,163 156,178 129,180 C148,156 148,118 142,96 C138,79 134,70 129,62 Z" fill="url(#hg)"/>
  <line x1="120" y1="43" x2="120" y2="187" stroke="#0E2A22" stroke-width="3.5"/>
</g>
<g transform="translate(168,66)" fill="#7FE3B5"><path d="M0,-12 L3,-3 L12,0 L3,3 L0,12 L-3,3 L-12,0 L-3,-3 Z"/></g>
</svg>
