<svg viewBox="0 0 360 420" xmlns="http://www.w3.org/2000/svg" font-family="-apple-system, BlinkMacSystemFont, 'Segoe UI', 'PingFang SC', 'Microsoft YaHei', sans-serif">
<defs>
  <linearGradient id="hg" x1="0" y1="0" x2="1" y2="1">
    <stop offset="0" stop-color="#8A5CFF"/>
    <stop offset="1" stop-color="#5B8BFF"/>
  </linearGradient>
  <clipPath id="clip"><circle cx="180" cy="150" r="78"/></clipPath>
</defs>
<circle cx="180" cy="150" r="78" fill="#ffffff" stroke="#E6E0FF" stroke-width="2"/>
<g clip-path="url(#clip)">
  <rect x="180" y="72" width="78" height="156" fill="#F0EAFF"/>
  <path d="M170,96 C134,96 122,134 128,166 C132,196 148,212 170,216 L170,96 Z" fill="#BCB2E0"/>
  <path d="M190,92 C230,94 246,132 240,172 C236,200 220,216 190,218 C210,192 210,152 204,128 C200,110 195,100 190,92 Z" fill="url(#hg)"/>
  <line x1="180" y1="72" x2="180" y2="228" stroke="#ffffff" stroke-width="3.5"/>
</g>
<g transform="translate(232,98)" fill="#C56BFF"><path d="M0,-13 L3.5,-3.5 L13,0 L3.5,3.5 L0,13 L-3.5,3.5 L-13,0 L-3.5,-3.5 Z"/></g>
<text x="180" y="305" font-size="46" font-weight="800" fill="#2A2342" text-anchor="middle" letter-spacing="3">焕发</text>
<text x="180" y="332" font-size="11" fill="#9A93B8" text-anchor="middle" letter-spacing="4">看见焕新后的自己</text>
<text x="180" y="356" font-size="10" fill="#C2BBDA" text-anchor="middle" letter-spacing="3">HUANFA · AI HAIR</text>
</svg>
